<?xml version="1.0" encoding="UTF-8" standalone="no"?>
<!DOCTYPE svg PUBLIC "-//W3C//DTD SVG 1.1//EN" "http://www.w3.org/Graphics/SVG/1.1/DTD/svg11.dtd">
<svg width="100%" height="100%" viewBox="0 0 214 214" version="1.1" xmlns="http://www.w3.org/2000/svg" xmlns:xlink="http://www.w3.org/1999/xlink" xml:space="preserve" xmlns:serif="http://www.serif.com/" style="fill-rule:evenodd;clip-rule:evenodd;stroke-linejoin:round;stroke-miterlimit:2;">
    <g transform="matrix(1,0,0,1,-580.176,-18.7577)">
        <circle cx="686.741" cy="125.322" r="106.565" style="fill:rgb(235,235,235);"/>
    </g>
    <g transform="matrix(3.86463,0,0,3.86463,-13.3637,-27.8008)">
        <path d="M29.152,34.48C30.453,34.757 31.499,35.408 32.288,36.432C33.078,37.435 33.472,38.587 33.472,39.888C33.472,41.765 32.811,43.259 31.488,44.368C30.187,45.456 28.363,46 26.016,46L15.552,46L15.552,23.536L25.664,23.536C27.947,23.536 29.728,24.059 31.008,25.104C32.31,26.149 32.96,27.568 32.96,29.36C32.96,30.683 32.608,31.781 31.904,32.656C31.222,33.531 30.304,34.139 29.152,34.48ZM21.024,32.624L24.608,32.624C25.504,32.624 26.187,32.432 26.656,32.048C27.147,31.643 27.392,31.056 27.392,30.288C27.392,29.52 27.147,28.933 26.656,28.528C26.187,28.123 25.504,27.92 24.608,27.92L21.024,27.92L21.024,32.624ZM25.056,41.584C25.974,41.584 26.677,41.381 27.168,40.976C27.68,40.549 27.936,39.941 27.936,39.152C27.936,38.363 27.67,37.744 27.136,37.296C26.624,36.848 25.91,36.624 24.992,36.624L21.024,36.624L21.024,41.584L25.056,41.584Z" style="fill:rgb(0,173,181);fill-rule:nonzero;"/>
    </g>
    <g transform="matrix(3.86463,0,0,3.86463,-584.04,-34.6877)">
        <path d="M190.519,18.764L191.881,41.736L184.956,42.437L181.684,19.659L190.519,18.764ZM189.776,54.3C188.343,54.445 187.123,54.151 186.116,53.416C185.138,52.647 184.586,51.641 184.46,50.4C184.331,49.126 184.669,48.015 185.473,47.065C186.309,46.112 187.444,45.563 188.876,45.417C190.277,45.276 191.467,45.589 192.445,46.359C193.456,47.125 194.025,48.145 194.154,49.418C194.28,50.66 193.925,51.757 193.089,52.71C192.281,53.628 191.177,54.158 189.776,54.3Z" style="fill:rgb(0,173,181);fill-rule:nonzero;"/>
    </g>
</svg>
