<?xml version="1.0" encoding="UTF-8" standalone="no"?>
<!DOCTYPE svg PUBLIC "-//W3C//DTD SVG 1.1//EN" "http://www.w3.org/Graphics/SVG/1.1/DTD/svg11.dtd">
<svg width="100%" height="100%" viewBox="0 0 811 251" version="1.1" xmlns="http://www.w3.org/2000/svg" xmlns:xlink="http://www.w3.org/1999/xlink" xml:space="preserve" xmlns:serif="http://www.serif.com/" style="fill-rule:evenodd;clip-rule:evenodd;stroke-linejoin:round;stroke-miterlimit:2;">
    <g transform="matrix(1,0,0,1,-1089.31,-1491.35)">
        <g transform="matrix(3.86347,0.0948549,-0.0948549,3.86347,1089.14,1483.29)">
            <path d="M210.102,5.837C210.102,3.695 208.363,1.956 206.221,1.956L5.353,1.956C3.21,1.956 1.471,3.695 1.471,5.837L1.471,58.016C1.471,60.158 3.21,61.897 5.353,61.897L206.221,61.897C208.363,61.897 210.102,60.158 210.102,58.016L210.102,5.837Z" style="fill:rgb(238,238,238);"/>
        </g>
        <g transform="matrix(3.86463,0,0,3.86463,1088.95,1483.42)">
            <path d="M29.152,34.48C30.453,34.757 31.499,35.408 32.288,36.432C33.078,37.435 33.472,38.587 33.472,39.888C33.472,41.765 32.811,43.259 31.488,44.368C30.187,45.456 28.363,46 26.016,46L15.552,46L15.552,23.536L25.664,23.536C27.947,23.536 29.728,24.059 31.008,25.104C32.31,26.149 32.96,27.568 32.96,29.36C32.96,30.683 32.608,31.781 31.904,32.656C31.222,33.531 30.304,34.139 29.152,34.48ZM21.024,32.624L24.608,32.624C25.504,32.624 26.187,32.432 26.656,32.048C27.147,31.643 27.392,31.056 27.392,30.288C27.392,29.52 27.147,28.933 26.656,28.528C26.187,28.123 25.504,27.92 24.608,27.92L21.024,27.92L21.024,32.624ZM25.056,41.584C25.974,41.584 26.677,41.381 27.168,40.976C27.68,40.549 27.936,39.941 27.936,39.152C27.936,38.363 27.67,37.744 27.136,37.296C26.624,36.848 25.91,36.624 24.992,36.624L21.024,36.624L21.024,41.584L25.056,41.584ZM35.558,37.04C35.558,35.205 35.899,33.595 36.582,32.208C37.286,30.821 38.235,29.755 39.43,29.008C40.625,28.261 41.958,27.888 43.43,27.888C44.689,27.888 45.787,28.144 46.726,28.656C47.686,29.168 48.422,29.84 48.934,30.672L48.934,28.144L54.406,28.144L54.406,46L48.934,46L48.934,43.472C48.401,44.304 47.654,44.976 46.694,45.488C45.755,46 44.657,46.256 43.398,46.256C41.947,46.256 40.625,45.883 39.43,45.136C38.235,44.368 37.286,43.291 36.582,41.904C35.899,40.496 35.558,38.875 35.558,37.04ZM48.934,37.072C48.934,35.707 48.55,34.629 47.782,33.84C47.035,33.051 46.118,32.656 45.03,32.656C43.942,32.656 43.014,33.051 42.246,33.84C41.499,34.608 41.126,35.675 41.126,37.04C41.126,38.405 41.499,39.493 42.246,40.304C43.014,41.093 43.942,41.488 45.03,41.488C46.118,41.488 47.035,41.093 47.782,40.304C48.55,39.515 48.934,38.437 48.934,37.072ZM57.277,37.072C57.277,35.216 57.65,33.595 58.397,32.208C59.165,30.821 60.221,29.755 61.565,29.008C62.93,28.261 64.487,27.888 66.237,27.888C68.477,27.888 70.343,28.475 71.837,29.648C73.351,30.821 74.343,32.475 74.813,34.608L68.989,34.608C68.498,33.243 67.549,32.56 66.141,32.56C65.138,32.56 64.338,32.955 63.741,33.744C63.143,34.512 62.845,35.621 62.845,37.072C62.845,38.523 63.143,39.643 63.741,40.432C64.338,41.2 65.138,41.584 66.141,41.584C67.549,41.584 68.498,40.901 68.989,39.536L74.813,39.536C74.343,41.627 73.351,43.269 71.837,44.464C70.322,45.659 68.455,46.256 66.237,46.256C64.487,46.256 62.93,45.883 61.565,45.136C60.221,44.389 59.165,43.323 58.397,41.936C57.65,40.549 57.277,38.928 57.277,37.072ZM76.652,37.04C76.652,35.205 76.993,33.595 77.676,32.208C78.38,30.821 79.329,29.755 80.524,29.008C81.718,28.261 83.052,27.888 84.524,27.888C85.782,27.888 86.881,28.144 87.82,28.656C88.78,29.168 89.516,29.84 90.028,30.672L90.028,28.144L95.5,28.144L95.5,46L90.028,46L90.028,43.472C89.494,44.304 88.748,44.976 87.788,45.488C86.849,46 85.75,46.256 84.492,46.256C83.041,46.256 81.718,45.883 80.524,45.136C79.329,44.368 78.38,43.291 77.676,41.904C76.993,40.496 76.652,38.875 76.652,37.04ZM90.028,37.072C90.028,35.707 89.644,34.629 88.876,33.84C88.129,33.051 87.212,32.656 86.124,32.656C85.036,32.656 84.108,33.051 83.34,33.84C82.593,34.608 82.22,35.675 82.22,37.04C82.22,38.405 82.593,39.493 83.34,40.304C84.108,41.093 85.036,41.488 86.124,41.488C87.212,41.488 88.129,41.093 88.876,40.304C89.644,39.515 90.028,38.437 90.028,37.072ZM113.058,34.48C114.36,34.757 115.405,35.408 116.194,36.432C116.984,37.435 117.378,38.587 117.378,39.888C117.378,41.765 116.717,43.259 115.394,44.368C114.093,45.456 112.269,46 109.922,46L99.459,46L99.459,23.536L109.57,23.536C111.853,23.536 113.634,24.059 114.914,25.104C116.216,26.149 116.866,27.568 116.866,29.36C116.866,30.683 116.514,31.781 115.81,32.656C115.128,33.531 114.21,34.139 113.058,34.48ZM104.93,32.624L108.514,32.624C109.41,32.624 110.093,32.432 110.562,32.048C111.053,31.643 111.298,31.056 111.298,30.288C111.298,29.52 111.053,28.933 110.562,28.528C110.093,28.123 109.41,27.92 108.514,27.92L104.93,27.92L104.93,32.624ZM108.962,41.584C109.88,41.584 110.584,41.381 111.074,40.976C111.586,40.549 111.842,39.941 111.842,39.152C111.842,38.363 111.576,37.744 111.042,37.296C110.53,36.848 109.816,36.624 108.898,36.624L104.93,36.624L104.93,41.584L108.962,41.584ZM138.184,28.144L138.184,46L132.712,46L132.712,43.568C132.158,44.357 131.4,44.997 130.44,45.488C129.502,45.957 128.456,46.192 127.304,46.192C125.939,46.192 124.734,45.893 123.688,45.296C122.643,44.677 121.832,43.792 121.256,42.64C120.68,41.488 120.392,40.133 120.392,38.576L120.392,28.144L125.832,28.144L125.832,37.84C125.832,39.035 126.142,39.963 126.76,40.624C127.379,41.285 128.211,41.616 129.256,41.616C130.323,41.616 131.166,41.285 131.784,40.624C132.403,39.963 132.712,39.035 132.712,37.84L132.712,28.144L138.184,28.144ZM153.027,46L147.587,38.512L147.587,46L142.115,46L142.115,22.32L147.587,22.32L147.587,35.408L152.995,28.144L159.747,28.144L152.323,37.104L159.811,46L153.027,46ZM179.528,28.144L179.528,46L174.056,46L174.056,43.568C173.501,44.357 172.744,44.997 171.784,45.488C170.845,45.957 169.8,46.192 168.648,46.192C167.283,46.192 166.077,45.893 165.032,45.296C163.987,44.677 163.176,43.792 162.6,42.64C162.024,41.488 161.736,40.133 161.736,38.576L161.736,28.144L167.176,28.144L167.176,37.84C167.176,39.035 167.485,39.963 168.104,40.624C168.723,41.285 169.555,41.616 170.6,41.616C171.667,41.616 172.509,41.285 173.128,40.624C173.747,39.963 174.056,39.035 174.056,37.84L174.056,28.144L179.528,28.144Z" style="fill:rgb(0,173,181);fill-rule:nonzero;"/>
        </g>
        <g transform="matrix(3.86463,0,0,3.86463,1088.95,1483.42)">
            <path d="M190.519,18.764L191.881,41.736L184.956,42.437L181.684,19.659L190.519,18.764ZM189.776,54.3C188.343,54.445 187.123,54.151 186.116,53.416C185.138,52.647 184.586,51.641 184.46,50.4C184.331,49.126 184.669,48.015 185.473,47.065C186.309,46.112 187.444,45.563 188.876,45.417C190.277,45.276 191.467,45.589 192.445,46.359C193.456,47.125 194.025,48.145 194.154,49.418C194.28,50.66 193.925,51.757 193.089,52.71C192.281,53.628 191.177,54.158 189.776,54.3Z" style="fill:rgb(0,173,181);fill-rule:nonzero;"/>
        </g>
    </g>
</svg>
